<svg width="592" height="170" viewBox="0 0 592 170" fill="none" xmlns="http://www.w3.org/2000/svg">
<path d="M98.6998 50.617C100.59 48.4384 102.031 45.9078 102.941 43.1707C103.85 40.4335 104.21 37.5436 104 34.667C98.1967 35.1354 92.8098 37.8648 88.9998 42.267C87.1753 44.3769 85.7927 46.8314 84.9338 49.4852C84.075 52.139 83.7574 54.9382 83.9998 57.717C86.8305 57.7406 89.6287 57.1125 92.1778 55.8813C94.7269 54.6501 96.9584 52.8489 98.6998 50.617V50.617ZM111.3 87.817C111.333 83.9857 112.343 80.2261 114.232 76.893C116.122 73.5599 118.829 70.7633 122.1 68.767C120.036 65.7932 117.308 63.3412 114.131 61.6054C110.955 59.8696 107.417 58.8978 103.8 58.767C95.9998 57.967 88.7998 63.317 84.6498 63.317C80.4998 63.317 74.6498 58.867 68.1498 58.967C63.9004 59.107 59.7599 60.3459 56.132 62.5629C52.5042 64.78 49.5128 67.8994 47.4498 71.617C38.6498 86.917 45.1998 109.667 53.9998 122.017C57.9998 128.067 62.9998 134.917 69.5998 134.667C76.1998 134.417 78.3498 130.567 85.9998 130.567C93.6498 130.567 95.9998 134.667 102.5 134.517C109 134.367 113.6 128.317 117.8 122.267C120.775 117.875 123.099 113.075 124.7 108.017C120.737 106.327 117.356 103.513 114.975 99.9235C112.594 96.3337 111.316 92.1249 111.3 87.817V87.817Z" fill="black"/>
<path d="M186.237 61.2021C185.974 61.583 185.554 62.0176 184.978 62.5059C184.411 62.9844 183.62 63.4043 182.604 63.7656C181.599 64.1172 180.295 64.293 178.693 64.293C176.965 64.293 175.427 63.8926 174.079 63.0918C172.741 62.291 171.691 61.1338 170.93 59.6201C170.168 58.1064 169.787 56.29 169.787 54.1709V52.4863C169.787 50.3672 170.119 48.5557 170.783 47.0518C171.447 45.5381 172.414 44.3809 173.684 43.5801C174.963 42.7793 176.521 42.3789 178.356 42.3789C179.987 42.3789 181.354 42.6621 182.458 43.2285C183.562 43.7852 184.421 44.5566 185.036 45.543C185.661 46.5293 186.062 47.6523 186.237 48.9121H183.396C183.269 48.1406 183.015 47.4375 182.634 46.8027C182.263 46.1582 181.73 45.6455 181.037 45.2646C180.344 44.874 179.455 44.6787 178.371 44.6787C177.053 44.6787 175.969 44.9961 175.119 45.6309C174.279 46.2559 173.654 47.1494 173.244 48.3115C172.844 49.4736 172.644 50.8555 172.644 52.457V54.1709C172.644 55.8115 172.897 57.2178 173.405 58.3896C173.913 59.5518 174.621 60.4453 175.529 61.0703C176.438 61.6953 177.497 62.0078 178.708 62.0078C179.714 62.0078 180.524 61.9248 181.14 61.7588C181.765 61.583 182.253 61.3779 182.604 61.1436C182.956 60.8994 183.225 60.6699 183.41 60.4551V55.6504H178.488V53.3799H186.237V61.2021ZM198.892 64.293C197.417 64.293 196.133 63.9658 195.039 63.3115C193.955 62.6475 193.111 61.7393 192.505 60.5869C191.909 59.4346 191.612 58.1162 191.612 56.6318V56.002C191.612 54.2832 191.939 52.8184 192.593 51.6074C193.257 50.3867 194.116 49.459 195.171 48.8242C196.236 48.1797 197.359 47.8574 198.54 47.8574C200.064 47.8574 201.304 48.1992 202.261 48.8828C203.228 49.5566 203.936 50.4795 204.385 51.6514C204.844 52.8135 205.073 54.1318 205.073 55.6064V56.8223H193.237V54.625H202.334V54.4199C202.295 53.7168 202.154 53.0332 201.909 52.3691C201.665 51.6953 201.275 51.1436 200.737 50.7139C200.2 50.2744 199.468 50.0547 198.54 50.0547C197.72 50.0547 196.992 50.2891 196.358 50.7578C195.733 51.2168 195.239 51.8906 194.878 52.7793C194.527 53.6582 194.351 54.7324 194.351 56.002V56.6318C194.351 57.6377 194.536 58.5557 194.907 59.3857C195.279 60.2061 195.816 60.8652 196.519 61.3633C197.222 61.8516 198.062 62.0957 199.038 62.0957C199.995 62.0957 200.806 61.9004 201.47 61.5098C202.134 61.1191 202.715 60.5967 203.213 59.9424L204.868 61.2314C204.361 62.0127 203.628 62.7207 202.671 63.3555C201.724 63.9805 200.464 64.293 198.892 64.293ZM216.703 50.2158H208.119V48.1504H216.703V50.2158ZM213.744 44.2979V60.0742C213.744 60.6211 213.827 61.0312 213.993 61.3047C214.159 61.5781 214.373 61.7588 214.637 61.8467C214.901 61.9346 215.184 61.9785 215.487 61.9785C215.711 61.9785 215.946 61.959 216.19 61.9199C216.444 61.8809 216.629 61.8467 216.746 61.8174L216.761 64C216.546 64.0684 216.263 64.1318 215.912 64.1904C215.57 64.2588 215.155 64.293 214.666 64.293C214.002 64.293 213.392 64.1611 212.835 63.8975C212.279 63.6338 211.834 63.1943 211.502 62.5791C211.17 61.9541 211.004 61.1143 211.004 60.0596V44.2979H213.744ZM237.558 50.2158H228.974V48.1504H237.558V50.2158ZM234.599 44.2979V60.0742C234.599 60.6211 234.682 61.0312 234.848 61.3047C235.014 61.5781 235.229 61.7588 235.493 61.8467C235.757 61.9346 236.04 61.9785 236.343 61.9785C236.567 61.9785 236.802 61.959 237.046 61.9199C237.3 61.8809 237.485 61.8467 237.602 61.8174L237.617 64C237.402 64.0684 237.119 64.1318 236.767 64.1904C236.426 64.2588 236.011 64.293 235.522 64.293C234.858 64.293 234.248 64.1611 233.691 63.8975C233.135 63.6338 232.69 63.1943 232.358 62.5791C232.026 61.9541 231.86 61.1143 231.86 60.0596V44.2979H234.599ZM245.247 64H242.508V41.5H245.247V64ZM243.46 55.416C243.479 53.9707 243.758 52.6816 244.295 51.5488C244.832 50.4062 245.579 49.5078 246.536 48.8535C247.503 48.1895 248.626 47.8574 249.905 47.8574C250.95 47.8574 251.849 48.0527 252.601 48.4434C253.362 48.8242 253.948 49.4346 254.358 50.2744C254.778 51.1143 254.988 52.2275 254.988 53.6143V64H252.249V53.585C252.249 52.7549 252.127 52.0859 251.883 51.5781C251.648 51.0703 251.297 50.7041 250.828 50.4795C250.359 50.2451 249.783 50.1279 249.1 50.1279C248.426 50.1279 247.815 50.2695 247.269 50.5527C246.722 50.8359 246.248 51.2266 245.848 51.7246C245.447 52.2227 245.14 52.7939 244.925 53.4385C244.71 54.0732 244.603 54.7471 244.603 55.46L243.46 55.416ZM267.423 64.293C265.948 64.293 264.664 63.9658 263.571 63.3115C262.487 62.6475 261.642 61.7393 261.036 60.5869C260.441 59.4346 260.143 58.1162 260.143 56.6318V56.002C260.143 54.2832 260.47 52.8184 261.124 51.6074C261.788 50.3867 262.648 49.459 263.702 48.8242C264.767 48.1797 265.89 47.8574 267.071 47.8574C268.595 47.8574 269.835 48.1992 270.792 48.8828C271.759 49.5566 272.467 50.4795 272.916 51.6514C273.375 52.8135 273.605 54.1318 273.605 55.6064V56.8223H261.769V54.625H270.865V54.4199C270.826 53.7168 270.685 53.0332 270.441 52.3691C270.196 51.6953 269.806 51.1436 269.269 50.7139C268.732 50.2744 267.999 50.0547 267.071 50.0547C266.251 50.0547 265.524 50.2891 264.889 50.7578C264.264 51.2168 263.771 51.8906 263.409 52.7793C263.058 53.6582 262.882 54.7324 262.882 56.002V56.6318C262.882 57.6377 263.068 58.5557 263.439 59.3857C263.81 60.2061 264.347 60.8652 265.05 61.3633C265.753 61.8516 266.593 62.0957 267.57 62.0957C268.527 62.0957 269.337 61.9004 270.001 61.5098C270.665 61.1191 271.246 60.5967 271.744 59.9424L273.4 61.2314C272.892 62.0127 272.159 62.7207 271.202 63.3555C270.255 63.9805 268.995 64.293 267.423 64.293ZM297.156 53.1309C297.156 52.1836 296.873 51.4316 296.306 50.875C295.75 50.3086 294.924 50.0254 293.831 50.0254C293.157 50.0254 292.561 50.1426 292.044 50.377C291.536 50.6113 291.14 50.9189 290.857 51.2998C290.574 51.6807 290.432 52.0957 290.432 52.5449H287.693C287.693 51.7832 287.952 51.0459 288.469 50.333C288.987 49.6104 289.714 49.0195 290.652 48.5605C291.599 48.0918 292.713 47.8574 293.992 47.8574C295.144 47.8574 296.165 48.0527 297.053 48.4434C297.942 48.834 298.635 49.4248 299.133 50.2158C299.641 50.9971 299.895 51.9785 299.895 53.1602V60.543C299.895 61.0703 299.939 61.6318 300.027 62.2275C300.125 62.8232 300.266 63.3359 300.452 63.7656V64H297.595C297.459 63.6875 297.351 63.2725 297.273 62.7549C297.195 62.2275 297.156 61.7393 297.156 61.29V53.1309ZM297.654 56.2949H294.929C293.386 56.2949 292.195 56.5391 291.355 57.0273C290.515 57.5156 290.095 58.248 290.095 59.2246C290.095 59.9863 290.349 60.6309 290.857 61.1582C291.375 61.6855 292.127 61.9492 293.113 61.9492C293.943 61.9492 294.675 61.7734 295.31 61.4219C295.945 61.0703 296.448 60.6357 296.819 60.1182C297.19 59.6006 297.39 59.1025 297.42 58.624L298.591 59.9277C298.523 60.3379 298.338 60.792 298.035 61.29C297.732 61.7881 297.327 62.2666 296.819 62.7256C296.321 63.1748 295.725 63.5508 295.032 63.8535C294.348 64.1465 293.577 64.293 292.717 64.293C291.643 64.293 290.701 64.0879 289.89 63.6777C289.089 63.2578 288.464 62.6914 288.015 61.9785C287.576 61.2656 287.356 60.4746 287.356 59.6055C287.356 57.8965 288.001 56.6025 289.29 55.7236C290.579 54.835 292.312 54.3906 294.49 54.3906H297.625L297.654 56.2949ZM308.697 70.0938H305.958V48.1504H308.448L308.697 51.1973V70.0938ZM319.361 56.251C319.361 57.7939 319.122 59.1709 318.643 60.3818C318.165 61.5928 317.467 62.5498 316.549 63.2529C315.64 63.9463 314.532 64.293 313.223 64.293C311.866 64.293 310.728 64 309.81 63.4141C308.892 62.8281 308.175 61.998 307.657 60.9238C307.139 59.8398 306.803 58.5605 306.646 57.0859V55.3867C306.803 53.834 307.139 52.4961 307.657 51.373C308.184 50.25 308.902 49.3857 309.81 48.7803C310.728 48.165 311.851 47.8574 313.179 47.8574C314.508 47.8574 315.631 48.1943 316.549 48.8682C317.467 49.542 318.165 50.4893 318.643 51.71C319.122 52.9209 319.361 54.332 319.361 55.9434V56.251ZM316.622 55.9434C316.622 54.8887 316.471 53.9219 316.168 53.043C315.875 52.1543 315.411 51.4463 314.776 50.9189C314.151 50.3916 313.346 50.1279 312.359 50.1279C311.685 50.1279 311.099 50.2451 310.601 50.4795C310.103 50.7139 309.679 51.0312 309.327 51.4316C308.975 51.8223 308.687 52.2715 308.463 52.7793C308.248 53.2773 308.087 53.7949 307.979 54.332V58.1553C308.175 58.8389 308.443 59.4834 308.785 60.0889C309.137 60.6846 309.6 61.168 310.177 61.5391C310.762 61.9102 311.5 62.0957 312.388 62.0957C313.365 62.0957 314.166 61.8271 314.791 61.29C315.416 60.7529 315.875 60.0449 316.168 59.166C316.471 58.2773 316.622 57.3057 316.622 56.251V55.9434ZM327.343 70.0938H324.604V48.1504H327.094L327.343 51.1973V70.0938ZM338.007 56.251C338.007 57.7939 337.768 59.1709 337.289 60.3818C336.811 61.5928 336.112 62.5498 335.194 63.2529C334.286 63.9463 333.178 64.293 331.869 64.293C330.512 64.293 329.374 64 328.456 63.4141C327.538 62.8281 326.82 61.998 326.303 60.9238C325.785 59.8398 325.448 58.5605 325.292 57.0859V55.3867C325.448 53.834 325.785 52.4961 326.303 51.373C326.83 50.25 327.548 49.3857 328.456 48.7803C329.374 48.165 330.497 47.8574 331.825 47.8574C333.153 47.8574 334.276 48.1943 335.194 48.8682C336.112 49.542 336.811 50.4893 337.289 51.71C337.768 52.9209 338.007 54.332 338.007 55.9434V56.251ZM335.268 55.9434C335.268 54.8887 335.116 53.9219 334.813 53.043C334.521 52.1543 334.057 51.4463 333.422 50.9189C332.797 50.3916 331.991 50.1279 331.005 50.1279C330.331 50.1279 329.745 50.2451 329.247 50.4795C328.749 50.7139 328.324 51.0312 327.973 51.4316C327.621 51.8223 327.333 52.2715 327.108 52.7793C326.894 53.2773 326.732 53.7949 326.625 54.332V58.1553C326.82 58.8389 327.089 59.4834 327.431 60.0889C327.782 60.6846 328.246 61.168 328.822 61.5391C329.408 61.9102 330.146 62.0957 331.034 62.0957C332.011 62.0957 332.812 61.8271 333.437 61.29C334.062 60.7529 334.521 60.0449 334.813 59.166C335.116 58.2773 335.268 57.3057 335.268 56.251V55.9434ZM351.788 55.9141C351.788 54.3809 352.08 53.0088 352.666 51.7979C353.252 50.5869 354.082 49.6299 355.157 48.9268C356.231 48.2139 357.505 47.8574 358.98 47.8574C360.474 47.8574 361.763 48.2139 362.847 48.9268C363.931 49.6299 364.761 50.5869 365.337 51.7979C365.923 53.0088 366.216 54.3809 366.216 55.9141V56.251C366.216 57.7744 365.923 59.1465 365.337 60.3672C364.761 61.5781 363.931 62.5352 362.847 63.2383C361.773 63.9414 360.494 64.293 359.009 64.293C357.525 64.293 356.241 63.9414 355.157 63.2383C354.082 62.5352 353.252 61.5781 352.666 60.3672C352.08 59.1465 351.788 57.7744 351.788 56.251V55.9141ZM354.527 56.251C354.527 57.2959 354.693 58.2627 355.025 59.1514C355.357 60.04 355.85 60.7529 356.504 61.29C357.168 61.8271 358.003 62.0957 359.009 62.0957C360.005 62.0957 360.83 61.8271 361.485 61.29C362.149 60.7529 362.647 60.04 362.979 59.1514C363.311 58.2627 363.477 57.2959 363.477 56.251V55.9141C363.477 54.8691 363.311 53.9023 362.979 53.0137C362.647 52.125 362.149 51.4121 361.485 50.875C360.821 50.3281 359.986 50.0547 358.98 50.0547C357.994 50.0547 357.168 50.3281 356.504 50.875C355.84 51.4121 355.342 52.125 355.01 53.0137C354.688 53.9023 354.527 54.8691 354.527 55.9141V56.251ZM374.169 64H371.429V48.1504H374.022L374.169 51.5342V64ZM372.381 55.416C372.401 53.9707 372.679 52.6816 373.216 51.5488C373.754 50.4062 374.501 49.5078 375.458 48.8535C376.424 48.1895 377.547 47.8574 378.827 47.8574C379.872 47.8574 380.77 48.0527 381.522 48.4434C382.284 48.8242 382.87 49.4346 383.28 50.2744C383.7 51.1143 383.91 52.2275 383.91 53.6143V64H381.171V53.585C381.171 52.7549 381.048 52.0859 380.804 51.5781C380.57 51.0703 380.218 50.7041 379.75 50.4795C379.281 50.2451 378.705 50.1279 378.021 50.1279C377.347 50.1279 376.737 50.2695 376.19 50.5527C375.643 50.8359 375.17 51.2266 374.769 51.7246C374.369 52.2227 374.061 52.7939 373.846 53.4385C373.631 54.0732 373.524 54.7471 373.524 55.46L372.381 55.416Z" fill="black"/>
<path d="M174.68 133.667H168.82L185.109 91.0107H188.859L188.771 94.7607L174.68 133.667ZM186.428 94.7607L186.369 91.0107H190.09L206.408 133.667H200.578L186.428 94.7607ZM199.875 122.505H175.881V117.905H199.875V122.505ZM216.779 145.854H211.301V101.968H216.281L216.779 108.062V145.854ZM238.107 118.169C238.107 121.255 237.629 124.009 236.672 126.431C235.715 128.853 234.318 130.767 232.482 132.173C230.666 133.56 228.449 134.253 225.832 134.253C223.117 134.253 220.842 133.667 219.006 132.495C217.17 131.323 215.734 129.663 214.699 127.515C213.664 125.347 212.99 122.788 212.678 119.839V116.44C212.99 113.335 213.664 110.659 214.699 108.413C215.754 106.167 217.189 104.438 219.006 103.228C220.842 101.997 223.088 101.382 225.744 101.382C228.4 101.382 230.646 102.056 232.482 103.403C234.318 104.751 235.715 106.646 236.672 109.087C237.629 111.509 238.107 114.331 238.107 117.554V118.169ZM232.629 117.554C232.629 115.444 232.326 113.511 231.721 111.753C231.135 109.976 230.207 108.56 228.938 107.505C227.688 106.45 226.076 105.923 224.104 105.923C222.756 105.923 221.584 106.157 220.588 106.626C219.592 107.095 218.742 107.729 218.039 108.53C217.336 109.312 216.76 110.21 216.311 111.226C215.881 112.222 215.559 113.257 215.344 114.331V121.978C215.734 123.345 216.271 124.634 216.955 125.845C217.658 127.036 218.586 128.003 219.738 128.745C220.91 129.487 222.385 129.858 224.162 129.858C226.115 129.858 227.717 129.321 228.967 128.247C230.217 127.173 231.135 125.757 231.721 123.999C232.326 122.222 232.629 120.278 232.629 118.169V117.554ZM250.471 145.854H244.992V101.968H249.973L250.471 108.062V145.854ZM271.799 118.169C271.799 121.255 271.32 124.009 270.363 126.431C269.406 128.853 268.01 130.767 266.174 132.173C264.357 133.56 262.141 134.253 259.523 134.253C256.809 134.253 254.533 133.667 252.697 132.495C250.861 131.323 249.426 129.663 248.391 127.515C247.355 125.347 246.682 122.788 246.369 119.839V116.44C246.682 113.335 247.355 110.659 248.391 108.413C249.445 106.167 250.881 104.438 252.697 103.228C254.533 101.997 256.779 101.382 259.436 101.382C262.092 101.382 264.338 102.056 266.174 103.403C268.01 104.751 269.406 106.646 270.363 109.087C271.32 111.509 271.799 114.331 271.799 117.554V118.169ZM266.32 117.554C266.32 115.444 266.018 113.511 265.412 111.753C264.826 109.976 263.898 108.56 262.629 107.505C261.379 106.45 259.768 105.923 257.795 105.923C256.447 105.923 255.275 106.157 254.279 106.626C253.283 107.095 252.434 107.729 251.73 108.53C251.027 109.312 250.451 110.21 250.002 111.226C249.572 112.222 249.25 113.257 249.035 114.331V121.978C249.426 123.345 249.963 124.634 250.646 125.845C251.35 127.036 252.277 128.003 253.43 128.745C254.602 129.487 256.076 129.858 257.854 129.858C259.807 129.858 261.408 129.321 262.658 128.247C263.908 127.173 264.826 125.757 265.412 123.999C266.018 122.222 266.32 120.278 266.32 118.169V117.554ZM317.121 122.886C317.121 121.538 316.838 120.396 316.271 119.458C315.705 118.521 314.689 117.671 313.225 116.909C311.76 116.147 309.68 115.376 306.984 114.595C304.875 113.989 302.971 113.306 301.271 112.544C299.592 111.763 298.146 110.874 296.936 109.878C295.725 108.882 294.797 107.739 294.152 106.45C293.508 105.161 293.186 103.687 293.186 102.026C293.186 99.7998 293.781 97.8174 294.973 96.0791C296.184 94.3213 297.873 92.9443 300.041 91.9482C302.209 90.9326 304.748 90.4248 307.658 90.4248C310.881 90.4248 313.615 91.04 315.861 92.2705C318.107 93.4814 319.816 95.0732 320.988 97.0459C322.16 98.999 322.746 101.089 322.746 103.315H317.033C317.033 101.714 316.691 100.288 316.008 99.0381C315.344 97.7881 314.318 96.8115 312.932 96.1084C311.545 95.3857 309.787 95.0244 307.658 95.0244C305.666 95.0244 304.016 95.3271 302.707 95.9326C301.418 96.5381 300.461 97.3584 299.836 98.3936C299.211 99.4287 298.898 100.61 298.898 101.938C298.898 103.13 299.24 104.194 299.924 105.132C300.607 106.05 301.682 106.88 303.146 107.622C304.611 108.364 306.506 109.067 308.83 109.731C312.053 110.63 314.699 111.675 316.77 112.866C318.84 114.058 320.363 115.464 321.34 117.085C322.336 118.706 322.834 120.62 322.834 122.827C322.834 125.132 322.219 127.144 320.988 128.862C319.758 130.581 318.029 131.909 315.803 132.847C313.576 133.784 310.959 134.253 307.951 134.253C305.979 134.253 304.035 133.979 302.121 133.433C300.227 132.886 298.498 132.065 296.936 130.972C295.393 129.878 294.152 128.53 293.215 126.929C292.297 125.308 291.838 123.433 291.838 121.304H297.521C297.521 122.769 297.805 124.028 298.371 125.083C298.938 126.138 299.709 127.007 300.686 127.69C301.662 128.374 302.775 128.882 304.025 129.214C305.275 129.526 306.584 129.683 307.951 129.683C309.924 129.683 311.584 129.409 312.932 128.862C314.299 128.296 315.334 127.505 316.037 126.489C316.76 125.474 317.121 124.272 317.121 122.886ZM342.521 106.099H325.354V101.968H342.521V106.099ZM336.604 94.2627V125.815C336.604 126.909 336.77 127.729 337.102 128.276C337.434 128.823 337.863 129.185 338.391 129.36C338.918 129.536 339.484 129.624 340.09 129.624C340.539 129.624 341.008 129.585 341.496 129.507C342.004 129.429 342.375 129.36 342.609 129.302L342.639 133.667C342.209 133.804 341.643 133.931 340.939 134.048C340.256 134.185 339.426 134.253 338.449 134.253C337.121 134.253 335.9 133.989 334.787 133.462C333.674 132.935 332.785 132.056 332.121 130.825C331.457 129.575 331.125 127.896 331.125 125.786V94.2627H336.604ZM346.535 117.495C346.535 114.429 347.121 111.685 348.293 109.263C349.465 106.841 351.125 104.927 353.273 103.521C355.422 102.095 357.971 101.382 360.92 101.382C363.908 101.382 366.486 102.095 368.654 103.521C370.822 104.927 372.482 106.841 373.635 109.263C374.807 111.685 375.393 114.429 375.393 117.495V118.169C375.393 121.216 374.807 123.96 373.635 126.401C372.482 128.823 370.822 130.737 368.654 132.144C366.506 133.55 363.947 134.253 360.979 134.253C358.01 134.253 355.441 133.55 353.273 132.144C351.125 130.737 349.465 128.823 348.293 126.401C347.121 123.96 346.535 121.216 346.535 118.169V117.495ZM352.014 118.169C352.014 120.259 352.346 122.192 353.01 123.97C353.674 125.747 354.66 127.173 355.969 128.247C357.297 129.321 358.967 129.858 360.979 129.858C362.971 129.858 364.621 129.321 365.93 128.247C367.258 127.173 368.254 125.747 368.918 123.97C369.582 122.192 369.914 120.259 369.914 118.169V117.495C369.914 115.405 369.582 113.472 368.918 111.694C368.254 109.917 367.258 108.491 365.93 107.417C364.602 106.323 362.932 105.776 360.92 105.776C358.947 105.776 357.297 106.323 355.969 107.417C354.641 108.491 353.645 109.917 352.98 111.694C352.336 113.472 352.014 115.405 352.014 117.495V118.169ZM387.697 133.667H382.219V101.968H387.551L387.697 106.948V133.667ZM397.57 106.802C397.102 106.704 396.662 106.646 396.252 106.626C395.861 106.587 395.412 106.567 394.904 106.567C393.244 106.567 391.838 106.909 390.686 107.593C389.553 108.276 388.674 109.224 388.049 110.435C387.424 111.626 387.033 112.993 386.877 114.536L385.324 115.415C385.324 112.856 385.666 110.522 386.35 108.413C387.033 106.284 388.098 104.585 389.543 103.315C391.008 102.026 392.883 101.382 395.168 101.382C395.539 101.382 395.979 101.431 396.486 101.528C397.014 101.606 397.375 101.694 397.57 101.792V106.802ZM415.734 134.253C412.785 134.253 410.217 133.599 408.029 132.29C405.861 130.962 404.172 129.146 402.961 126.841C401.77 124.536 401.174 121.899 401.174 118.931V117.671C401.174 114.233 401.828 111.304 403.137 108.882C404.465 106.44 406.184 104.585 408.293 103.315C410.422 102.026 412.668 101.382 415.031 101.382C418.078 101.382 420.559 102.065 422.473 103.433C424.406 104.78 425.822 106.626 426.721 108.97C427.639 111.294 428.098 113.931 428.098 116.88V119.312H404.426V114.917H422.619V114.507C422.541 113.101 422.258 111.733 421.77 110.405C421.281 109.058 420.5 107.954 419.426 107.095C418.352 106.216 416.887 105.776 415.031 105.776C413.391 105.776 411.936 106.245 410.666 107.183C409.416 108.101 408.43 109.448 407.707 111.226C407.004 112.983 406.652 115.132 406.652 117.671V118.931C406.652 120.942 407.023 122.778 407.766 124.438C408.508 126.079 409.582 127.397 410.988 128.394C412.395 129.37 414.074 129.858 416.027 129.858C417.941 129.858 419.562 129.468 420.891 128.687C422.219 127.905 423.381 126.86 424.377 125.552L427.688 128.13C426.672 129.692 425.207 131.108 423.293 132.378C421.398 133.628 418.879 134.253 415.734 134.253Z" fill="black"/>
<rect x="1" y="1" width="590" height="167.333" rx="7" stroke="black" stroke-width="2"/>
</svg>
