<svg width="592" height="170" viewBox="0 0 592 170" fill="none" xmlns="http://www.w3.org/2000/svg">
<path d="M43.668 45.7949V79.5393M43.668 45.7949H55.6182M43.668 45.7949L48.1493 60.9799M43.668 79.5393H54.1245V72.7904M43.668 79.5393L48.1493 60.9799M54.1245 72.7904L60.0996 79.5393M54.1245 72.7904L48.1493 60.9799M54.1245 72.7904L61.5934 52.5438M60.0996 79.5393H72.0499M60.0996 79.5393L67.5685 69.416M72.0499 79.5393V45.7949M72.0499 79.5393L67.5685 69.416M72.0499 45.7949H61.5934V52.5438M72.0499 45.7949L67.5685 69.416M61.5934 52.5438L55.6182 45.7949M61.5934 52.5438L67.5685 69.416M55.6182 45.7949L48.1493 60.9799" stroke="#333333"/>
<path d="M86.9858 45.7949L79.5169 52.5438L76.5293 62.6671M86.9858 45.7949H95.9485L104.911 52.5438M86.9858 45.7949L85.492 62.6671M86.9858 45.7949L98.936 67.7288M104.911 52.5438L107.899 62.6671L104.911 72.7904M104.911 52.5438L98.936 67.7288M104.911 72.7904L97.4423 79.5393M104.911 72.7904L98.936 67.7288M97.4423 79.5393H86.9858M97.4423 79.5393L98.936 67.7288M86.9858 79.5393L79.5169 72.7904L76.5293 62.6671M86.9858 79.5393L98.936 67.7288M86.9858 79.5393L85.492 62.6671M76.5293 62.6671H85.492M85.492 62.6671L98.936 67.7288" stroke="#333333"/>
<path d="M112.381 45.7949H124.331M112.381 45.7949L119.85 54.231M112.381 45.7949V69.416M124.331 45.7949L119.85 54.231M124.331 45.7949V62.6671M124.331 79.5393H112.381M124.331 79.5393V62.6671M124.331 79.5393L118.356 67.7288M112.381 79.5393L118.356 67.7288M112.381 79.5393V69.416M119.85 54.231L124.331 62.6671M119.85 54.231L118.365 67.647M118.356 67.7288L118.365 67.647M118.365 67.647L112.381 69.416" stroke="#333333"/>
<path d="M38.5191 123.539C37.1172 123.539 35.7579 123.244 34.4409 122.654C33.1453 122.064 31.9983 121.226 31 120.141L33.1665 117.344C33.9099 118.123 34.7596 118.76 35.7154 119.256C36.6712 119.728 37.627 119.964 38.5828 119.964C39.7723 119.964 40.675 119.692 41.291 119.15C41.9069 118.607 42.2149 117.887 42.2149 116.99C42.2149 116.518 42.13 116.117 41.96 115.787C41.8114 115.456 41.5883 115.173 41.291 114.937C41.0149 114.678 40.675 114.442 40.2714 114.229C39.8891 114.017 39.4643 113.805 38.997 113.592L36.1296 112.212C35.6198 111.976 35.11 111.681 34.6002 111.327C34.1117 110.973 33.6657 110.548 33.2621 110.052C32.8585 109.557 32.5293 108.979 32.2744 108.318C32.0408 107.657 31.924 106.902 31.924 106.052C31.924 105.132 32.0939 104.282 32.4337 103.504C32.7948 102.701 33.2833 102.005 33.8993 101.415C34.5153 100.825 35.2481 100.365 36.0977 100.035C36.9686 99.7043 37.9138 99.5391 38.9333 99.5391C40.144 99.5391 41.3122 99.8104 42.438 100.353C43.5637 100.872 44.5301 101.58 45.3373 102.477L43.4575 105.097C42.7778 104.483 42.0769 103.999 41.3547 103.645C40.6325 103.291 39.8254 103.114 38.9333 103.114C37.935 103.114 37.1385 103.362 36.5437 103.858C35.949 104.33 35.6516 104.99 35.6516 105.84C35.6516 106.288 35.7366 106.678 35.9065 107.008C36.0977 107.315 36.342 107.598 36.6393 107.858C36.9579 108.094 37.319 108.318 37.7226 108.53C38.1262 108.719 38.5403 108.908 38.9652 109.097L41.8007 110.406C42.4167 110.69 42.9796 111.02 43.4894 111.397C43.9991 111.775 44.4346 112.212 44.7956 112.707C45.178 113.203 45.4753 113.781 45.6877 114.442C45.9001 115.079 46.0063 115.822 46.0063 116.672C46.0063 117.616 45.8364 118.501 45.4966 119.327C45.1567 120.153 44.6576 120.884 43.9991 121.521C43.3619 122.135 42.576 122.631 41.6414 123.008C40.7281 123.362 39.6873 123.539 38.5191 123.539Z" fill="black"/>
<path d="M49.7953 123.114V99.9638H62.3802V103.433H53.4911V109.982H61.0739V113.451H53.4911V123.114H49.7953Z" fill="black"/>
<path d="M71.3442 123.539C69.9424 123.539 68.583 123.244 67.2661 122.654C65.9704 122.064 64.8234 121.226 63.8251 120.141L65.9917 117.344C66.7351 118.123 67.5847 118.76 68.5405 119.256C69.4963 119.728 70.4521 119.964 71.408 119.964C72.5974 119.964 73.5001 119.692 74.1161 119.15C74.7321 118.607 75.0401 117.887 75.0401 116.99C75.0401 116.518 74.9551 116.117 74.7852 115.787C74.6365 115.456 74.4135 115.173 74.1161 114.937C73.84 114.678 73.5001 114.442 73.0966 114.229C72.7143 114.017 72.2894 113.805 71.8222 113.592L68.9547 112.212C68.4449 111.976 67.9352 111.681 67.4254 111.327C66.9369 110.973 66.4908 110.548 66.0872 110.052C65.6837 109.557 65.3545 108.979 65.0996 108.318C64.8659 107.657 64.7491 106.902 64.7491 106.052C64.7491 105.132 64.919 104.282 65.2589 103.504C65.62 102.701 66.1085 102.005 66.7245 101.415C67.3404 100.825 68.0732 100.365 68.9228 100.035C69.7937 99.7043 70.7389 99.5391 71.7584 99.5391C72.9691 99.5391 74.1374 99.8104 75.2631 100.353C76.3888 100.872 77.3553 101.58 78.1624 102.477L76.2826 105.097C75.6029 104.483 74.902 103.999 74.1798 103.645C73.4577 103.291 72.6505 103.114 71.7584 103.114C70.7601 103.114 69.9636 103.362 69.3689 103.858C68.7742 104.33 68.4768 104.99 68.4768 105.84C68.4768 106.288 68.5618 106.678 68.7317 107.008C68.9228 107.315 69.1671 107.598 69.4645 107.858C69.7831 108.094 70.1442 108.318 70.5477 108.53C70.9513 108.719 71.3655 108.908 71.7903 109.097L74.6259 110.406C75.2419 110.69 75.8047 111.02 76.3145 111.397C76.8243 111.775 77.2597 112.212 77.6208 112.707C78.0031 113.203 78.3005 113.781 78.5129 114.442C78.7253 115.079 78.8315 115.822 78.8315 116.672C78.8315 117.616 78.6616 118.501 78.3217 119.327C77.9819 120.153 77.4827 120.884 76.8243 121.521C76.1871 122.135 75.4012 122.631 74.4666 123.008C73.5532 123.362 72.5125 123.539 71.3442 123.539Z" fill="black"/>
<path d="M90.936 123.539C89.6191 123.539 88.3872 123.279 87.2402 122.76C86.0932 122.241 85.0949 121.474 84.2453 120.459C83.4169 119.445 82.7585 118.194 82.2699 116.707C81.7814 115.22 81.5371 113.521 81.5371 111.61C81.5371 109.722 81.7814 108.035 82.2699 106.548C82.7797 105.038 83.4594 103.763 84.309 102.725C85.1799 101.687 86.1888 100.896 87.3358 100.353C88.504 99.8104 89.7466 99.5391 91.0635 99.5391C92.3804 99.5391 93.5486 99.834 94.5681 100.424C95.5877 101.014 96.4267 101.698 97.0851 102.477L95.1098 105.132C94.5575 104.518 93.9628 104.035 93.3256 103.681C92.6884 103.303 91.9662 103.114 91.1591 103.114C90.3094 103.114 89.5235 103.315 88.8014 103.716C88.1004 104.094 87.4845 104.648 86.9534 105.38C86.4437 106.088 86.0401 106.961 85.7428 107.999C85.4666 109.038 85.3286 110.206 85.3286 111.504C85.3286 114.147 85.8383 116.223 86.8579 117.734C87.8987 119.22 89.3005 119.964 91.0635 119.964C91.998 119.964 92.8264 119.751 93.5486 119.327C94.2708 118.878 94.9292 118.3 95.524 117.592L97.4993 120.176C96.6497 121.262 95.6726 122.1 94.5681 122.69C93.4849 123.256 92.2742 123.539 90.936 123.539Z" fill="black"/>
<path d="M108.012 123.539C106.653 123.539 105.41 123.268 104.285 122.725C103.159 122.159 102.192 121.356 101.385 120.318C100.578 119.256 99.9516 117.982 99.5055 116.495C99.0595 115.008 98.8365 113.321 98.8365 111.433C98.8365 109.569 99.0595 107.905 99.5055 106.442C99.9516 104.955 100.578 103.704 101.385 102.69C102.192 101.675 103.159 100.896 104.285 100.353C105.41 99.8104 106.653 99.5391 108.012 99.5391C109.372 99.5391 110.614 99.8104 111.74 100.353C112.866 100.896 113.832 101.675 114.639 102.69C115.468 103.704 116.105 104.955 116.551 106.442C116.997 107.905 117.22 109.569 117.22 111.433C117.22 113.321 116.997 115.008 116.551 116.495C116.105 117.982 115.468 119.256 114.639 120.318C113.832 121.356 112.866 122.159 111.74 122.725C110.614 123.268 109.372 123.539 108.012 123.539ZM108.012 119.964C108.841 119.964 109.584 119.763 110.243 119.362C110.901 118.961 111.464 118.395 111.931 117.663C112.398 116.908 112.76 116.011 113.014 114.973C113.269 113.911 113.397 112.731 113.397 111.433C113.397 108.837 112.908 106.807 111.931 105.344C110.975 103.858 109.669 103.114 108.012 103.114C106.356 103.114 105.039 103.858 104.062 105.344C103.106 106.807 102.628 108.837 102.628 111.433C102.628 112.731 102.755 113.911 103.01 114.973C103.265 116.011 103.626 116.908 104.093 117.663C104.561 118.395 105.124 118.961 105.782 119.362C106.441 119.763 107.184 119.964 108.012 119.964Z" fill="black"/>
<path d="M121.388 123.114V99.9638H125.18L131.679 112.99L133.814 117.911H133.941C133.856 116.707 133.75 115.421 133.623 114.052C133.517 112.66 133.463 111.315 133.463 110.017V99.9638H137V123.114H133.209L126.709 110.088L124.574 105.167H124.447C124.532 106.395 124.627 107.681 124.734 109.026C124.861 110.371 124.925 111.692 124.925 112.99V123.114H121.388Z" fill="black"/>
<path d="M183.63 42.6719H186.721L178.825 64H176.628L177.36 60.7773L183.63 42.6719ZM177.727 60.7773L178.503 64H176.306L168.425 42.6719H171.516L177.727 60.7773ZM193.955 64H191.216V48.1504H193.955V64ZM191.011 43.9316C191.011 43.502 191.143 43.1357 191.406 42.833C191.68 42.5303 192.08 42.3789 192.608 42.3789C193.135 42.3789 193.535 42.5303 193.809 42.833C194.092 43.1357 194.234 43.502 194.234 43.9316C194.234 44.3516 194.092 44.7129 193.809 45.0156C193.535 45.3086 193.135 45.4551 192.608 45.4551C192.08 45.4551 191.68 45.3086 191.406 45.0156C191.143 44.7129 191.011 44.3516 191.011 43.9316ZM209.305 59.7959C209.305 59.4053 209.217 59.0439 209.041 58.7119C208.875 58.3701 208.534 58.0625 208.016 57.7891C207.498 57.5059 206.717 57.2568 205.672 57.042C204.5 56.7979 203.485 56.4902 202.625 56.1191C201.776 55.7383 201.117 55.2549 200.648 54.6689C200.189 54.083 199.959 53.3555 199.959 52.4863C199.959 51.6465 200.199 50.8799 200.677 50.1865C201.165 49.4834 201.849 48.9219 202.728 48.502C203.617 48.0723 204.652 47.8574 205.833 47.8574C207.103 47.8574 208.187 48.082 209.085 48.5312C209.994 48.9707 210.687 49.5664 211.165 50.3184C211.644 51.0605 211.883 51.8857 211.883 52.7939H209.144C209.144 52.1396 208.856 51.5195 208.28 50.9336C207.713 50.3477 206.898 50.0547 205.833 50.0547C205.091 50.0547 204.486 50.1719 204.017 50.4062C203.558 50.6309 203.221 50.9238 203.006 51.2852C202.801 51.6367 202.699 52.0078 202.699 52.3984C202.699 52.7891 202.796 53.1309 202.992 53.4238C203.187 53.707 203.543 53.9609 204.061 54.1855C204.588 54.4102 205.35 54.6348 206.346 54.8594C207.645 55.1523 208.714 55.5039 209.554 55.9141C210.394 56.3242 211.019 56.8271 211.429 57.4229C211.839 58.0186 212.044 58.7461 212.044 59.6055C212.044 60.5234 211.79 61.3389 211.283 62.0518C210.775 62.7549 210.062 63.3066 209.144 63.707C208.226 64.0977 207.147 64.293 205.907 64.293C204.51 64.293 203.329 64.0439 202.362 63.5459C201.395 63.0479 200.663 62.4082 200.164 61.627C199.666 60.8359 199.417 60.001 199.417 59.1221H202.157C202.205 59.8643 202.42 60.4551 202.801 60.8945C203.192 61.3242 203.665 61.6318 204.222 61.8174C204.788 62.0029 205.35 62.0957 205.907 62.0957C206.649 62.0957 207.269 61.998 207.767 61.8027C208.275 61.5977 208.656 61.3242 208.91 60.9824C209.173 60.6309 209.305 60.2354 209.305 59.7959ZM220.348 64H217.609V48.1504H220.348V64ZM217.404 43.9316C217.404 43.502 217.536 43.1357 217.799 42.833C218.073 42.5303 218.473 42.3789 219.001 42.3789C219.528 42.3789 219.928 42.5303 220.202 42.833C220.485 43.1357 220.627 43.502 220.627 43.9316C220.627 44.3516 220.485 44.7129 220.202 45.0156C219.928 45.3086 219.528 45.4551 219.001 45.4551C218.473 45.4551 218.073 45.3086 217.799 45.0156C217.536 44.7129 217.404 44.3516 217.404 43.9316ZM233.135 50.2158H224.551V48.1504H233.135V50.2158ZM230.176 44.2979V60.0742C230.176 60.6211 230.259 61.0312 230.425 61.3047C230.591 61.5781 230.805 61.7588 231.069 61.8467C231.333 61.9346 231.616 61.9785 231.919 61.9785C232.143 61.9785 232.378 61.959 232.622 61.9199C232.876 61.8809 233.061 61.8467 233.179 61.8174L233.193 64C232.978 64.0684 232.695 64.1318 232.344 64.1904C232.002 64.2588 231.587 64.293 231.098 64.293C230.434 64.293 229.824 64.1611 229.267 63.8975C228.711 63.6338 228.266 63.1943 227.934 62.5791C227.602 61.9541 227.436 61.1143 227.436 60.0596V44.2979H230.176ZM246.622 55.9141C246.622 54.3809 246.915 53.0088 247.501 51.7979C248.087 50.5869 248.917 49.6299 249.991 48.9268C251.066 48.2139 252.34 47.8574 253.815 47.8574C255.309 47.8574 256.598 48.2139 257.682 48.9268C258.766 49.6299 259.596 50.5869 260.172 51.7979C260.758 53.0088 261.051 54.3809 261.051 55.9141V56.251C261.051 57.7744 260.758 59.1465 260.172 60.3672C259.596 61.5781 258.766 62.5352 257.682 63.2383C256.608 63.9414 255.328 64.293 253.844 64.293C252.36 64.293 251.075 63.9414 249.991 63.2383C248.917 62.5352 248.087 61.5781 247.501 60.3672C246.915 59.1465 246.622 57.7744 246.622 56.251V55.9141ZM249.362 56.251C249.362 57.2959 249.528 58.2627 249.86 59.1514C250.192 60.04 250.685 60.7529 251.339 61.29C252.003 61.8271 252.838 62.0957 253.844 62.0957C254.84 62.0957 255.665 61.8271 256.32 61.29C256.984 60.7529 257.482 60.04 257.814 59.1514C258.146 58.2627 258.312 57.2959 258.312 56.251V55.9141C258.312 54.8691 258.146 53.9023 257.814 53.0137C257.482 52.125 256.984 51.4121 256.32 50.875C255.655 50.3281 254.821 50.0547 253.815 50.0547C252.828 50.0547 252.003 50.3281 251.339 50.875C250.675 51.4121 250.177 52.125 249.845 53.0137C249.523 53.9023 249.362 54.8691 249.362 55.9141V56.251ZM275.961 48.1504H278.701V64H276.093L275.961 60.3379V48.1504ZM277.617 56.9688C277.617 58.375 277.416 59.6299 277.016 60.7334C276.616 61.8369 275.961 62.7061 275.053 63.3408C274.145 63.9756 272.929 64.293 271.406 64.293C269.853 64.293 268.598 63.834 267.641 62.916C266.684 61.998 266.205 60.4844 266.205 58.375V48.1504H268.945V58.4043C268.945 59.3613 269.081 60.1035 269.355 60.6309C269.638 61.1484 269.999 61.5098 270.439 61.7148C270.888 61.9102 271.357 62.0078 271.845 62.0078C272.997 62.0078 273.911 61.7881 274.584 61.3486C275.258 60.8994 275.742 60.2939 276.035 59.5322C276.328 58.7705 276.474 57.9258 276.474 56.998L277.617 56.9688ZM287.356 64H284.617V48.1504H287.283L287.356 50.6406V64ZM292.293 50.5674C292.058 50.5186 291.838 50.4893 291.633 50.4795C291.438 50.46 291.213 50.4502 290.96 50.4502C290.129 50.4502 289.426 50.6211 288.85 50.9629C288.284 51.3047 287.844 51.7783 287.532 52.3838C287.219 52.9795 287.024 53.6631 286.946 54.4346L286.17 54.874C286.17 53.5947 286.34 52.4277 286.682 51.373C287.024 50.3086 287.556 49.459 288.279 48.8242C289.011 48.1797 289.949 47.8574 291.091 47.8574C291.277 47.8574 291.497 47.8818 291.751 47.9307C292.014 47.9697 292.195 48.0137 292.293 48.0625V50.5674ZM317.602 58.6094C317.602 57.9355 317.46 57.3643 317.177 56.8955C316.894 56.4268 316.386 56.002 315.653 55.6211C314.921 55.2402 313.881 54.8545 312.533 54.4639C311.479 54.1611 310.526 53.8193 309.677 53.4385C308.837 53.0479 308.114 52.6035 307.509 52.1055C306.903 51.6074 306.439 51.0361 306.117 50.3916C305.795 49.7471 305.634 49.0098 305.634 48.1797C305.634 47.0664 305.932 46.0752 306.527 45.2061C307.133 44.3271 307.978 43.6387 309.062 43.1406C310.146 42.6328 311.415 42.3789 312.87 42.3789C314.481 42.3789 315.849 42.6865 316.972 43.3018C318.095 43.9072 318.949 44.7031 319.535 45.6895C320.121 46.666 320.414 47.7109 320.414 48.8242H317.558C317.558 48.0234 317.387 47.3105 317.045 46.6855C316.713 46.0605 316.2 45.5723 315.507 45.2207C314.813 44.8594 313.935 44.6787 312.87 44.6787C311.874 44.6787 311.049 44.8301 310.395 45.1328C309.75 45.4355 309.271 45.8457 308.959 46.3633C308.646 46.8809 308.49 47.4717 308.49 48.1357C308.49 48.7314 308.661 49.2637 309.003 49.7324C309.345 50.1914 309.882 50.6064 310.614 50.9775C311.347 51.3486 312.294 51.7002 313.456 52.0322C315.067 52.4814 316.391 53.0039 317.426 53.5996C318.461 54.1953 319.223 54.8984 319.711 55.709C320.209 56.5195 320.458 57.4766 320.458 58.5801C320.458 59.7324 320.15 60.7383 319.535 61.5977C318.92 62.457 318.056 63.1211 316.942 63.5898C315.829 64.0586 314.521 64.293 313.017 64.293C312.03 64.293 311.059 64.1562 310.102 63.8828C309.154 63.6094 308.29 63.1992 307.509 62.6523C306.737 62.1055 306.117 61.4316 305.648 60.6309C305.189 59.8203 304.96 58.8828 304.96 57.8184H307.802C307.802 58.5508 307.943 59.1807 308.227 59.708C308.51 60.2354 308.896 60.6699 309.384 61.0117C309.872 61.3535 310.429 61.6074 311.054 61.7734C311.679 61.9297 312.333 62.0078 313.017 62.0078C314.003 62.0078 314.833 61.8711 315.507 61.5977C316.19 61.3145 316.708 60.9189 317.06 60.4111C317.421 59.9033 317.602 59.3027 317.602 58.6094ZM328.703 64H325.862V42.6719H328.703V64ZM337.624 54.5664H328.088V52.2812H337.624V54.5664ZM339.074 44.9717H328.088V42.6719H339.074V44.9717ZM355.596 58.6094C355.596 57.9355 355.454 57.3643 355.171 56.8955C354.888 56.4268 354.38 56.002 353.648 55.6211C352.915 55.2402 351.875 54.8545 350.528 54.4639C349.473 54.1611 348.521 53.8193 347.671 53.4385C346.831 53.0479 346.109 52.6035 345.503 52.1055C344.898 51.6074 344.434 51.0361 344.112 50.3916C343.789 49.7471 343.628 49.0098 343.628 48.1797C343.628 47.0664 343.926 46.0752 344.522 45.2061C345.127 44.3271 345.972 43.6387 347.056 43.1406C348.14 42.6328 349.41 42.3789 350.865 42.3789C352.476 42.3789 353.843 42.6865 354.966 43.3018C356.089 43.9072 356.944 44.7031 357.53 45.6895C358.116 46.666 358.409 47.7109 358.409 48.8242H355.552C355.552 48.0234 355.381 47.3105 355.039 46.6855C354.707 46.0605 354.195 45.5723 353.501 45.2207C352.808 44.8594 351.929 44.6787 350.865 44.6787C349.869 44.6787 349.043 44.8301 348.389 45.1328C347.745 45.4355 347.266 45.8457 346.954 46.3633C346.641 46.8809 346.485 47.4717 346.485 48.1357C346.485 48.7314 346.656 49.2637 346.997 49.7324C347.339 50.1914 347.876 50.6064 348.609 50.9775C349.341 51.3486 350.288 51.7002 351.451 52.0322C353.062 52.4814 354.385 53.0039 355.42 53.5996C356.455 54.1953 357.217 54.8984 357.705 55.709C358.204 56.5195 358.453 57.4766 358.453 58.5801C358.453 59.7324 358.145 60.7383 357.53 61.5977C356.914 62.457 356.05 63.1211 354.937 63.5898C353.824 64.0586 352.515 64.293 351.011 64.293C350.025 64.293 349.053 64.1562 348.096 63.8828C347.149 63.6094 346.285 63.1992 345.503 62.6523C344.732 62.1055 344.112 61.4316 343.643 60.6309C343.184 59.8203 342.954 58.8828 342.954 57.8184H345.796C345.796 58.5508 345.938 59.1807 346.221 59.708C346.504 60.2354 346.89 60.6699 347.378 61.0117C347.867 61.3535 348.423 61.6074 349.048 61.7734C349.673 61.9297 350.328 62.0078 351.011 62.0078C351.997 62.0078 352.828 61.8711 353.501 61.5977C354.185 61.3145 354.703 60.9189 355.054 60.4111C355.415 59.9033 355.596 59.3027 355.596 58.6094ZM369.789 62.0957C370.433 62.0957 371.029 61.9639 371.576 61.7002C372.123 61.4268 372.572 61.0557 372.923 60.5869C373.275 60.1182 373.475 59.5859 373.524 58.9902H376.117C376.068 59.9277 375.751 60.8018 375.165 61.6123C374.579 62.4131 373.817 63.0625 372.879 63.5605C371.942 64.0488 370.912 64.293 369.789 64.293C368.197 64.293 366.879 63.9316 365.834 63.209C364.789 62.4766 364.007 61.5098 363.49 60.3086C362.982 59.1074 362.728 57.7988 362.728 56.3828V55.7676C362.728 54.3418 362.987 53.0332 363.504 51.8418C364.022 50.6406 364.803 49.6787 365.848 48.9561C366.893 48.2236 368.207 47.8574 369.789 47.8574C371.029 47.8574 372.113 48.1113 373.041 48.6191C373.978 49.1172 374.711 49.8008 375.238 50.6699C375.775 51.5293 376.068 52.5059 376.117 53.5996H373.524C373.475 52.9453 373.29 52.3496 372.967 51.8125C372.655 51.2754 372.225 50.8506 371.678 50.5381C371.141 50.2158 370.511 50.0547 369.789 50.0547C368.685 50.0547 367.816 50.3379 367.181 50.9043C366.556 51.4707 366.112 52.1934 365.848 53.0723C365.594 53.9414 365.467 54.8398 365.467 55.7676V56.3828C365.467 57.3105 365.594 58.2139 365.848 59.0928C366.102 59.9717 366.542 60.6943 367.167 61.2607C367.801 61.8174 368.675 62.0957 369.789 62.0957ZM380.261 55.9141C380.261 54.3809 380.554 53.0088 381.139 51.7979C381.725 50.5869 382.555 49.6299 383.63 48.9268C384.704 48.2139 385.978 47.8574 387.453 47.8574C388.947 47.8574 390.236 48.2139 391.32 48.9268C392.404 49.6299 393.234 50.5869 393.81 51.7979C394.396 53.0088 394.689 54.3809 394.689 55.9141V56.251C394.689 57.7744 394.396 59.1465 393.81 60.3672C393.234 61.5781 392.404 62.5352 391.32 63.2383C390.246 63.9414 388.967 64.293 387.482 64.293C385.998 64.293 384.714 63.9414 383.63 63.2383C382.555 62.5352 381.725 61.5781 381.139 60.3672C380.554 59.1465 380.261 57.7744 380.261 56.251V55.9141ZM383 56.251C383 57.2959 383.166 58.2627 383.498 59.1514C383.83 60.04 384.323 60.7529 384.977 61.29C385.641 61.8271 386.476 62.0957 387.482 62.0957C388.478 62.0957 389.304 61.8271 389.958 61.29C390.622 60.7529 391.12 60.04 391.452 59.1514C391.784 58.2627 391.95 57.2959 391.95 56.251V55.9141C391.95 54.8691 391.784 53.9023 391.452 53.0137C391.12 52.125 390.622 51.4121 389.958 50.875C389.294 50.3281 388.459 50.0547 387.453 50.0547C386.467 50.0547 385.641 50.3281 384.977 50.875C384.313 51.4121 383.815 52.125 383.483 53.0137C383.161 53.9023 383 54.8691 383 55.9141V56.251ZM402.642 64H399.902V48.1504H402.495L402.642 51.5342V64ZM400.854 55.416C400.874 53.9707 401.152 52.6816 401.689 51.5488C402.227 50.4062 402.974 49.5078 403.931 48.8535C404.897 48.1895 406.021 47.8574 407.3 47.8574C408.345 47.8574 409.243 48.0527 409.995 48.4434C410.757 48.8242 411.343 49.4346 411.753 50.2744C412.173 51.1143 412.383 52.2275 412.383 53.6143V64H409.644V53.585C409.644 52.7549 409.521 52.0859 409.277 51.5781C409.043 51.0703 408.691 50.7041 408.223 50.4795C407.754 50.2451 407.178 50.1279 406.494 50.1279C405.82 50.1279 405.21 50.2695 404.663 50.5527C404.116 50.8359 403.643 51.2266 403.242 51.7246C402.842 52.2227 402.534 52.7939 402.319 53.4385C402.104 54.0732 401.997 54.7471 401.997 55.46L400.854 55.416Z" fill="black"/>
<path d="M192.609 91.0107H196.77L194.367 102.524L185.285 133.667H181.154L184.172 120.806L192.609 91.0107ZM182.18 120.249L184.172 133.667H180.1L169.787 91.0107H175.471L182.18 120.249ZM214.23 91.0107H219.943L209.631 133.667H205.559L207.668 120.22L214.23 91.0107ZM205.588 120.806L208.576 133.667H204.445L195.686 102.524L193.312 91.0107H197.385L205.588 120.806ZM238.547 134.253C235.598 134.253 233.029 133.599 230.842 132.29C228.674 130.962 226.984 129.146 225.773 126.841C224.582 124.536 223.986 121.899 223.986 118.931V117.671C223.986 114.233 224.641 111.304 225.949 108.882C227.277 106.44 228.996 104.585 231.105 103.315C233.234 102.026 235.48 101.382 237.844 101.382C240.891 101.382 243.371 102.065 245.285 103.433C247.219 104.78 248.635 106.626 249.533 108.97C250.451 111.294 250.91 113.931 250.91 116.88V119.312H227.238V114.917H245.432V114.507C245.354 113.101 245.07 111.733 244.582 110.405C244.094 109.058 243.312 107.954 242.238 107.095C241.164 106.216 239.699 105.776 237.844 105.776C236.203 105.776 234.748 106.245 233.479 107.183C232.229 108.101 231.242 109.448 230.52 111.226C229.816 112.983 229.465 115.132 229.465 117.671V118.931C229.465 120.942 229.836 122.778 230.578 124.438C231.32 126.079 232.395 127.397 233.801 128.394C235.207 129.37 236.887 129.858 238.84 129.858C240.754 129.858 242.375 129.468 243.703 128.687C245.031 127.905 246.193 126.86 247.189 125.552L250.5 128.13C249.484 129.692 248.02 131.108 246.105 132.378C244.211 133.628 241.691 134.253 238.547 134.253ZM262.717 88.667V127.515L262.248 133.667H257.238V88.667H262.717ZM284.104 118.169C284.104 121.255 283.625 124.009 282.668 126.431C281.711 128.853 280.314 130.767 278.479 132.173C276.643 133.56 274.416 134.253 271.799 134.253C269.104 134.253 266.857 133.647 265.061 132.437C263.264 131.206 261.867 129.478 260.871 127.251C259.875 125.005 259.221 122.349 258.908 119.282V116.44C259.221 113.335 259.875 110.659 260.871 108.413C261.867 106.167 263.254 104.438 265.031 103.228C266.828 101.997 269.064 101.382 271.74 101.382C274.396 101.382 276.643 102.056 278.479 103.403C280.314 104.751 281.711 106.646 282.668 109.087C283.625 111.509 284.104 114.331 284.104 117.554V118.169ZM278.625 117.554C278.625 115.444 278.361 113.511 277.834 111.753C277.307 109.976 276.438 108.56 275.227 107.505C274.035 106.45 272.414 105.923 270.363 105.923C269.016 105.923 267.834 106.157 266.818 106.626C265.822 107.095 264.973 107.729 264.27 108.53C263.566 109.312 262.99 110.21 262.541 111.226C262.111 112.222 261.789 113.257 261.574 114.331V121.45C261.887 122.817 262.395 124.136 263.098 125.405C263.801 126.655 264.748 127.681 265.939 128.481C267.15 129.282 268.645 129.683 270.422 129.683C272.375 129.683 273.947 129.165 275.139 128.13C276.35 127.075 277.229 125.679 277.775 123.94C278.342 122.202 278.625 120.278 278.625 118.169V117.554ZM309.387 125.259C309.387 124.478 309.211 123.755 308.859 123.091C308.527 122.407 307.844 121.792 306.809 121.245C305.773 120.679 304.211 120.181 302.121 119.751C299.777 119.263 297.746 118.647 296.027 117.905C294.328 117.144 293.01 116.177 292.072 115.005C291.154 113.833 290.695 112.378 290.695 110.64C290.695 108.96 291.174 107.427 292.131 106.04C293.107 104.634 294.475 103.511 296.232 102.671C298.01 101.812 300.08 101.382 302.443 101.382C304.982 101.382 307.15 101.831 308.947 102.729C310.764 103.608 312.15 104.8 313.107 106.304C314.064 107.788 314.543 109.438 314.543 111.255H309.064C309.064 109.946 308.488 108.706 307.336 107.534C306.203 106.362 304.572 105.776 302.443 105.776C300.959 105.776 299.748 106.011 298.811 106.479C297.893 106.929 297.219 107.515 296.789 108.237C296.379 108.94 296.174 109.683 296.174 110.464C296.174 111.245 296.369 111.929 296.76 112.515C297.15 113.081 297.863 113.589 298.898 114.038C299.953 114.487 301.477 114.937 303.469 115.386C306.066 115.972 308.205 116.675 309.885 117.495C311.564 118.315 312.814 119.321 313.635 120.513C314.455 121.704 314.865 123.159 314.865 124.878C314.865 126.714 314.357 128.345 313.342 129.771C312.326 131.177 310.9 132.28 309.064 133.081C307.229 133.862 305.07 134.253 302.59 134.253C299.797 134.253 297.434 133.755 295.5 132.759C293.566 131.763 292.102 130.483 291.105 128.921C290.109 127.339 289.611 125.669 289.611 123.911H295.09C295.188 125.396 295.617 126.577 296.379 127.456C297.16 128.315 298.107 128.931 299.221 129.302C300.354 129.673 301.477 129.858 302.59 129.858C304.074 129.858 305.314 129.663 306.311 129.272C307.326 128.862 308.088 128.315 308.596 127.632C309.123 126.929 309.387 126.138 309.387 125.259ZM327.873 133.667H322.395V101.968H327.873V133.667ZM321.984 93.5303C321.984 92.6709 322.248 91.9385 322.775 91.333C323.322 90.7275 324.123 90.4248 325.178 90.4248C326.232 90.4248 327.033 90.7275 327.58 91.333C328.146 91.9385 328.43 92.6709 328.43 93.5303C328.43 94.3701 328.146 95.0928 327.58 95.6982C327.033 96.2842 326.232 96.5771 325.178 96.5771C324.123 96.5771 323.322 96.2842 322.775 95.6982C322.248 95.0928 321.984 94.3701 321.984 93.5303ZM349.846 106.099H332.678V101.968H349.846V106.099ZM343.928 94.2627V125.815C343.928 126.909 344.094 127.729 344.426 128.276C344.758 128.823 345.188 129.185 345.715 129.36C346.242 129.536 346.809 129.624 347.414 129.624C347.863 129.624 348.332 129.585 348.82 129.507C349.328 129.429 349.699 129.36 349.934 129.302L349.963 133.667C349.533 133.804 348.967 133.931 348.264 134.048C347.58 134.185 346.75 134.253 345.773 134.253C344.445 134.253 343.225 133.989 342.111 133.462C340.998 132.935 340.109 132.056 339.445 130.825C338.781 129.575 338.449 127.896 338.449 125.786V94.2627H343.928ZM369.328 134.253C366.379 134.253 363.811 133.599 361.623 132.29C359.455 130.962 357.766 129.146 356.555 126.841C355.363 124.536 354.768 121.899 354.768 118.931V117.671C354.768 114.233 355.422 111.304 356.73 108.882C358.059 106.44 359.777 104.585 361.887 103.315C364.016 102.026 366.262 101.382 368.625 101.382C371.672 101.382 374.152 102.065 376.066 103.433C378 104.78 379.416 106.626 380.314 108.97C381.232 111.294 381.691 113.931 381.691 116.88V119.312H358.02V114.917H376.213V114.507C376.135 113.101 375.852 111.733 375.363 110.405C374.875 109.058 374.094 107.954 373.02 107.095C371.945 106.216 370.48 105.776 368.625 105.776C366.984 105.776 365.529 106.245 364.26 107.183C363.01 108.101 362.023 109.448 361.301 111.226C360.598 112.983 360.246 115.132 360.246 117.671V118.931C360.246 120.942 360.617 122.778 361.359 124.438C362.102 126.079 363.176 127.397 364.582 128.394C365.988 129.37 367.668 129.858 369.621 129.858C371.535 129.858 373.156 129.468 374.484 128.687C375.812 127.905 376.975 126.86 377.971 125.552L381.281 128.13C380.266 129.692 378.801 131.108 376.887 132.378C374.992 133.628 372.473 134.253 369.328 134.253Z" fill="black"/>
<rect x="1" y="1" width="590" height="167.333" rx="7" stroke="black" stroke-width="2"/>
</svg>
